<svg width="123" height="112" viewBox="0 0 123 112" fill="none" xmlns="http://www.w3.org/2000/svg">
<g filter="url(#filter0_d)">
<rect x="13" y="10" width="96.32" height="86" rx="9" fill="white"/>
</g>
<path d="M73.0498 61.7139V38.4617H40.7676V61.7139" stroke="#4C82BF" stroke-width="2.7" stroke-miterlimit="10" stroke-linecap="round" stroke-linejoin="round"/>
<path d="M73.0498 43.8799H85.6165L91.0345 54.4901V61.7141" stroke="#4C82BF" stroke-width="2.7" stroke-miterlimit="10" stroke-linecap="round" stroke-linejoin="round"/>
<path d="M88.0996 61.7139H91.2601" stroke="#4C82BF" stroke-width="2.7" stroke-miterlimit="10" stroke-linecap="round" stroke-linejoin="round"/>
<path d="M55.5156 61.7139H77.4886" stroke="#4C82BF" stroke-width="2.7" stroke-miterlimit="10" stroke-linecap="round" stroke-linejoin="round"/>
<path d="M40.7676 61.7139H44.9063" stroke="#4C82BF" stroke-width="2.7" stroke-miterlimit="10" stroke-linecap="round" stroke-linejoin="round"/>
<path d="M54.1616 62.7676C54.1616 65.1756 52.2051 67.1321 49.7971 67.1321C47.3891 67.1321 45.4326 65.1756 45.4326 62.7676C45.4326 60.3596 47.3891 58.4031 49.7971 58.4031C52.2051 58.4031 54.1616 60.2843 54.1616 62.7676Z" stroke="#4C82BF" stroke-width="2.7" stroke-miterlimit="10" stroke-linecap="round" stroke-linejoin="round"/>
<path d="M87.0454 62.7672C87.0454 65.1752 85.0889 67.1317 82.6809 67.1317C80.2729 67.1317 78.3164 65.1752 78.3164 62.7672C78.3164 60.3592 80.2729 58.4027 82.6809 58.4027C85.0889 58.3275 87.0454 60.284 87.0454 62.7672Z" stroke="#4C82BF" stroke-width="2.7" stroke-miterlimit="10" stroke-linecap="round" stroke-linejoin="round"/>
<path d="M36.5526 41.9233H34.0693" stroke="#4C82BF" stroke-opacity="0.46" stroke-width="2.7" stroke-miterlimit="10" stroke-linecap="round" stroke-linejoin="round"/>
<path d="M36.5526 58.3276H34.0693" stroke="#4C82BF" stroke-opacity="0.82" stroke-width="2.7" stroke-miterlimit="10" stroke-linecap="round" stroke-linejoin="round"/>
<path d="M34.1448 50.1255H31.0596" stroke="#4C82BF" stroke-opacity="0.72" stroke-width="2.7" stroke-miterlimit="10" stroke-linecap="round" stroke-linejoin="round"/>
<path d="M86.1428 52.4582H80.499V47.1907" stroke="#4C82BF" stroke-opacity="0.58" stroke-width="2.7" stroke-miterlimit="10" stroke-linecap="round" stroke-linejoin="round"/>
<defs>
<filter id="filter0_d" x="0" y="0" width="122.32" height="112" filterUnits="userSpaceOnUse" color-interpolation-filters="sRGB">
<feFlood flood-opacity="0" result="BackgroundImageFix"/>
<feColorMatrix in="SourceAlpha" type="matrix" values="0 0 0 0 0 0 0 0 0 0 0 0 0 0 0 0 0 0 127 0"/>
<feOffset dy="3"/>
<feGaussianBlur stdDeviation="6.5"/>
<feColorMatrix type="matrix" values="0 0 0 0 0.341176 0 0 0 0 0.541176 0 0 0 0 0.764706 0 0 0 0.2 0"/>
<feBlend mode="normal" in2="BackgroundImageFix" result="effect1_dropShadow"/>
<feBlend mode="normal" in="SourceGraphic" in2="effect1_dropShadow" result="shape"/>
</filter>
</defs>
</svg>
